Coordinates
version=1
nRows=13
nColumns=38
inDegrees=no

Units are S.I. units (second, meters, Newtons, ...)
If the header above contains a line with 'inDegrees', this indicates whether rotational values are in degrees (yes) or radians (no).

endheader
time	pelvis_tilt	pelvis_list	pelvis_rotation	pelvis_tx	pelvis_ty	pelvis_tz	hip_flexion_r	hip_adduction_r	hip_rotation_r	knee_angle_r	ankle_angle_r	subtalar_angle_r	mtp_angle_r	hip_flexion_l	hip_adduction_l	hip_rotation_l	knee_angle_l	ankle_angle_l	subtalar_angle_l	mtp_angle_l	lumbar_extension	lumbar_bending	lumbar_rotation	arm_flex_r	arm_add_r	arm_rot_r	elbow_flex_r	pro_sup_r	wrist_flex_r	wrist_dev_r	arm_flex_l	arm_add_l	arm_rot_l	elbow_flex_l	pro_sup_l	wrist_flex_l	wrist_dev_l
0.62	-1.86524	1.38706	-2.96932	0.58855	0.256589	0.943915	0.291692	-0.314362	0.0310928	1.35738	-0.162444	0	0	0.273875	0.148196	-0.305127	0.487975	0.105207	0	0	-0.0525398	-0.198461	0.077228	-0.0405888	-0.173823	0.311231	0.603194	1.09369	0	0	-0.198479	-0.277016	0.556045	0.599708	0.804784	0	0
0.63	-1.85934	1.39093	-2.96403	0.587416	0.267132	0.945812	0.314141	-0.31106	0.019801	1.35922	-0.149741	0	0	0.254886	0.150192	-0.2984	0.474158	0.10987	0	0	-0.0531528	-0.19569	0.0631079	-0.0480238	-0.175327	0.308925	0.613349	1.09158	0	0	-0.1844	-0.283643	0.556345	0.60302	0.807604	0	0
0.64	-1.85429	1.39451	-2.95733	0.586257	0.27751	0.947519	0.335872	-0.309195	0.00703017	1.35737	-0.138508	0	0	0.235532	0.152492	-0.29038	0.459834	0.114416	0	0	-0.0546147	-0.193296	0.0483954	-0.0550959	-0.17659	0.30557	0.623116	1.09028	0	0	-0.170096	-0.290699	0.556916	0.607914	0.810089	0	0
0.65	-1.85677	1.39741	-2.94227	0.585085	0.287813	0.949152	0.3549	-0.308982	-0.00760405	1.35166	-0.127014	0	0	0.213969	0.155431	-0.280745	0.44418	0.118705	0	0	-0.0582173	-0.19138	0.0327421	-0.0618142	-0.17745	0.301269	0.632504	1.08898	0	0	-0.155442	-0.298045	0.556325	0.614079	0.811265	0	0
0.66	-1.87323	1.39804	-2.91426	0.583935	0.298169	0.950862	0.37005	-0.31144	-0.0219581	1.34189	-0.114557	0	0	0.186662	0.161353	-0.268012	0.422658	0.120533	0	0	-0.06492	-0.191064	0.0178402	-0.0675524	-0.178361	0.297683	0.640604	1.08766	0	0	-0.140118	-0.305193	0.554467	0.620737	0.811081	0	0
0.67	-1.90624	1.3872	-2.87272	0.58286	0.308804	0.953355	0.380478	-0.335152	-0.0430779	1.3289	-0.103881	0	0	0.120558	0.197003	-0.195122	0.332787	0.0978115	0	0	-0.0775422	-0.202064	0.00513527	-0.0719558	-0.177201	0.294613	0.645398	1.08456	0	0	-0.123864	-0.313329	0.552396	0.627111	0.810162	0	0
0.68	-1.91923	1.3913	-2.85074	0.582095	0.318659	0.954452	0.396211	-0.322952	-0.0437571	1.31277	-0.0884748	0	0	0.0984867	0.195227	-0.187674	0.318506	0.102621	0	0	-0.0833908	-0.197765	-0.00600963	-0.0772123	-0.177788	0.28723	0.651471	1.09517	0	0	-0.105944	-0.318948	0.551646	0.631519	0.810121	0	0
0.69	-1.91499	1.40637	-2.84033	0.581186	0.328494	0.953911	0.41759	-0.318187	-0.0739787	1.29892	-0.0749413	0	0	0.121917	0.162258	-0.245874	0.386637	0.140794	0	0	-0.0823443	-0.182532	-0.0216295	-0.0858223	-0.185278	0.299379	0.668902	1.04871	0	0	-0.0904543	-0.325696	0.554026	0.640908	0.804657	0	0
0.7	-1.96297	1.39401	-2.78811	0.580439	0.338897	0.956043	0.422754	-0.332357	-0.0808196	1.27716	-0.060062	0	0	0.0482082	0.196465	-0.165196	0.287636	0.111179	0	0	-0.099187	-0.192785	-0.0289851	-0.0904411	-0.180315	0.277556	0.669518	1.08586	0	0	-0.0709303	-0.331606	0.551659	0.643786	0.812237	0	0
0.71	-1.96604	1.4064	-2.77369	0.579827	0.348432	0.955382	0.442089	-0.321921	-0.0975285	1.25725	-0.0443343	0	0	0.0705453	0.168122	-0.219395	0.352655	0.147162	0	0	-0.0998133	-0.179905	-0.0403732	-0.0976096	-0.18226	0.271042	0.678002	1.08976	0	0	-0.0523571	-0.336408	0.553248	0.648539	0.813558	0	0
0.72	-1.99528	1.4074	-2.73765	0.579299	0.358296	0.955837	0.452821	-0.321904	-0.109526	1.23251	-0.0302255	0	0	0.0476035	0.167954	-0.207756	0.341226	0.153607	0	0	-0.109025	-0.176623	-0.0474779	-0.105329	-0.179323	0.247005	0.68425	1.12442	0	0	-0.0314951	-0.33864	0.548304	0.647736	0.840273	0	0
0.73	-2.03021	1.39797	-2.70213	0.579004	0.368504	0.957007	0.459792	-0.330654	-0.114095	1.20498	-0.0181883	0	0	-0.0167828	0.192928	-0.136057	0.25625	0.129608	0	0	-0.122229	-0.183398	-0.05077	-0.109226	-0.17932	0.245659	0.687015	1.1137	0	0	-0.0110173	-0.343909	0.554024	0.650771	0.830615	0	0
0.74	-2.03644	1.40856	-2.68827	0.578806	0.377947	0.95594	0.4773	-0.321305	-0.128364	1.17824	-0.0065818	0	0	0.00753766	0.167388	-0.192134	0.32334	0.168116	0	0	-0.122748	-0.172262	-0.0580544	-0.115405	-0.180575	0.240416	0.692592	1.11663	0	0	0.00849783	-0.347272	0.556174	0.65418	0.833263	0	0
